<svg xmlns="http://www.w3.org/2000/svg" width="24" height="24" fill="#E1306C" viewBox="0 0 24 24">
  <path d="M12 2.163c3.204 0 3.584.012 4.849.07 1.17.054 1.97.24 2.423.41a4.92 4.92 0 0 1 1.675 1.094 4.92 4.92 0 0 1 1.094 1.675c.17.453.356 1.253.41 2.423.058 1.265.07 1.645.07 4.849s-.012 3.584-.07 4.849c-.054 1.17-.24 1.97-.41 2.423a4.92 4.92 0 0 1-1.094 1.675 4.92 4.92 0 0 1-1.675 1.094c-.453.17-1.253.356-2.423.41-1.265.058-1.645.07-4.849.07s-3.584-.012-4.849-.07c-1.17-.054-1.97-.24-2.423-.41a4.92 4.92 0 0 1-1.675-1.094 4.92 4.92 0 0 1-1.094-1.675c-.17-.453-.356-1.253-.41-2.423C2.175 15.747 2.163 15.367 2.163 12s.012-3.584.07-4.849c.054-1.17.24-1.97.41-2.423a4.92 4.92 0 0 1 1.094-1.675 4.92 4.92 0 0 1 1.675-1.094c.453-.17 1.253-.356 2.423-.41C8.416 2.175 8.796 2.163 12 2.163zm0 1.837c-3.17 0-3.548.012-4.805.07-1.003.046-1.547.215-1.91.358a3.09 3.09 0 0 0-1.122.732 3.09 3.09 0 0 0-.732 1.122c-.143.363-.312.907-.358 1.91-.058 1.257-.07 1.635-.07 4.805s.012 3.548.07 4.805c.046 1.003.215 1.547.358 1.91.162.419.387.776.732 1.122.346.346.703.57 1.122.732.363.143.907.312 1.91.358 1.257.058 1.635.07 4.805.07s3.548-.012 4.805-.07c1.003-.046 1.547-.215 1.91-.358a3.09 3.09 0 0 0 1.122-.732 3.09 3.09 0 0 0 .732-1.122c.143-.363.312-.907.358-1.91.058-1.257.07-1.635.07-4.805s-.012-3.548-.07-4.805c-.046-1.003-.215-1.547-.358-1.91a3.09 3.09 0 0 0-.732-1.122 3.09 3.09 0 0 0-1.122-.732c-.363-.143-.907-.312-1.91-.358-1.257-.058-1.635-.07-4.805-.07zM12 5.838a6.162 6.162 0 1 0 0 12.324 6.162 6.162 0 0 0 0-12.324zm0 10.162a3.999 3.999 0 1 1 0-7.998 3.999 3.999 0 0 1 0 7.998zm6.406-11.845a1.44 1.44 0 1 0 0 2.88 1.44 1.44 0 0 0 0-2.88z"/>
</svg>