<svg xmlns="http://www.w3.org/2000/svg" width="24" height="24" fill="#25D366" viewBox="0 0 24 24">
  <path d="M12.04 2.002c-5.523 0-10 4.478-10 10 0 1.773.468 3.45 1.36 4.945L2 22l5.176-1.346A9.942 9.942 0 0 0 12.04 22c5.523 0 10-4.478 10-10s-4.477-9.998-10-9.998zm0 18.182c-1.526 0-3.02-.416-4.322-1.206l-.31-.184-3.07.798.82-2.995-.2-.31a8.184 8.184 0 0 1-1.263-4.276c0-4.528 3.675-8.203 8.205-8.203 4.526 0 8.2 3.675 8.2 8.203 0 4.526-3.674 8.18-8.2 8.18zm4.55-6.179c-.25-.125-1.48-.73-1.71-.814-.23-.084-.4-.125-.57.126-.165.25-.655.812-.805.976-.15.165-.3.19-.55.063-.25-.125-1.06-.39-2.02-1.242-.745-.662-1.246-1.478-1.39-1.727-.15-.25-.016-.385.112-.51.115-.115.25-.3.38-.45.13-.15.165-.25.25-.415.084-.165.042-.312-.02-.437-.063-.125-.57-1.376-.78-1.884-.205-.49-.415-.422-.57-.43l-.49-.01c-.166 0-.437.063-.667.313-.23.25-.875.855-.875 2.082 0 1.228.896 2.415 1.02 2.58.125.165 1.76 2.684 4.26 3.77.596.257 1.062.41 1.424.526.598.19 1.14.163 1.57.1.48-.07 1.48-.6 1.69-1.18.21-.576.21-1.07.147-1.176-.063-.106-.23-.17-.48-.295z"/>
</svg>